HIERARCHY
ROOT Hips
{
  OFFSET 0 0 0
  CHANNELS 6 Xposition Yposition Zposition Zrotation Yrotation Xrotation
  JOINT LeftThigh
  {
    OFFSET 8.409438 0 -5.917753
    CHANNELS 3 Zrotation Yrotation Xrotation
    JOINT LeftLeg
    {
      OFFSET 0 0 -42.358652
      CHANNELS 3 Zrotation Yrotation Xrotation
      JOINT LeftFoot
      {
        OFFSET 0 0 -39.357303
        CHANNELS 3 Zrotation Yrotation Xrotation
      }
    }
  }
  JOINT RightThigh
  {
    OFFSET -8.409438 0 -5.917753
    CHANNELS 3 Zrotation Yrotation Xrotation
    JOINT RightLeg
    {
      OFFSET 0 0 -42.358652
      CHANNELS 3 Zrotation Yrotation Xrotation
      JOINT RightFoot
      {
        OFFSET 0 0 -39.357303
        CHANNELS 3 Zrotation Yrotation Xrotation
      }
    }
  }
  JOINT SpineLow
  {
    OFFSET 0 0 4.719101
    CHANNELS 3 Zrotation Yrotation Xrotation
    JOINT SpineMid
    {
      OFFSET 0 0 12.899191
      CHANNELS 3 Zrotation Yrotation Xrotation
      JOINT Chest
      {
        OFFSET 0 0 12.899191
        CHANNELS 3 Zrotation Yrotation Xrotation
        JOINT LeftShoulder
        {
          OFFSET 7.550562 1.41573 9.438202
          CHANNELS 3 Zrotation Yrotation Xrotation
          JOINT LeftArm
          {
            OFFSET 9.155056 0 4.247191
            CHANNELS 3 Zrotation Yrotation Xrotation
            JOINT LeftForearm
            {
              OFFSET 0 0 25.771955
              CHANNELS 3 Zrotation Yrotation Xrotation
              JOINT LeftHand
              {
                OFFSET 0 0 25.197169
                CHANNELS 3 Zrotation Yrotation Xrotation
              }
            }
          }
        }
        JOINT RightShoulder
        {
          OFFSET -7.550562 1.41573 9.438202
          CHANNELS 3 Zrotation Yrotation Xrotation
          JOINT RightArm
          {
            OFFSET -9.155056 0 4.247191
            CHANNELS 3 Zrotation Yrotation Xrotation
            JOINT RightForearm
            {
              OFFSET 0 0 -25.771955
              CHANNELS 3 Zrotation Yrotation Xrotation
              JOINT RightHand
              {
                OFFSET 0 0 -25.197169
                CHANNELS 3 Zrotation Yrotation Xrotation
              }
            }
          }
        }
        JOINT Neck
        {
          OFFSET 0 0 15.101124
          CHANNELS 3 Zrotation Yrotation Xrotation
          JOINT Head
          {
            OFFSET 0 0 11.325843
            CHANNELS 3 Zrotation Yrotation Xrotation
            End Site
            {
              OFFSET 0 0 14.157303
            }
          }
        }
      }
    }
  }
}
MOTION
Frames: 16
Frame Time: 0.01
0.0  101.685394  0.0  -0.527268  -11.42448  -103.8187  25.392302  -20.038145  7.511113  1.600931  2.954248  26.122486  7.785747  3.713574  4.428058  -12.081434  14.2961  -2.502932  7.002757  0.689664  16.523808  15.870755  3.228854  -0.203225  0.786392  -0.457846  1.888937  2.112523  -1.311844  5.148325  2.112523  -1.311844  5.148325  -12.36054  2.378493  10.761193  10.162457  68.257296  63.704445  -38.848276  -37.685366  88.136674  117.326344  24.201125  -29.126066  9.275489  -18.935696  17.804442  100.402113  26.50903  33.857471  -35.06283  17.733613  -105.726597  80.124934  24.98963  36.325392  6.382976  -1.995902  0.014685  4.786796  -1.496967  0.031871  
0.0  101.685394  0.0  -1.147015  -11.973928  -103.724022  25.581026  -20.726975  7.828532  2.034958  2.777423  25.316217  7.832824  3.811251  4.566313  -11.460995  13.543548  -1.327927  6.615988  0.764808  15.005572  14.30009  2.76724  -0.559619  0.162153  -0.479203  2.141535  0.400465  -1.323018  5.851147  0.400465  -1.323018  5.851146  -9.454863  -0.272767  7.853421  6.945272  65.29556  58.297076  -31.588491  -49.532294  80.723369  113.868539  23.501159  -38.960145  11.410613  -19.238556  17.516468  94.607441  23.723877  36.085597  -34.7991  18.381463  -108.185925  76.632205  25.243305  36.987734  7.931753  -2.136127  -0.688296  5.945728  -1.611352  -0.488523  
0.0  101.685394  0.0  -1.837298  -12.284926  -103.541988  26.30283  -21.771464  7.742266  1.973201  2.885721  24.700828  7.663157  3.910575  4.715735  -10.546491  12.635522  -0.226806  5.850265  0.775754  13.69417  14.110868  2.813922  -0.533945  -0.433895  -0.437669  2.070202  -1.222574  -1.158146  5.66687  -1.222574  -1.158146  5.66687  -6.671993  -2.788412  7.072477  3.465016  62.708722  52.322624  -22.792606  -54.165907  72.803267  111.711115  19.475052  -41.039103  13.808004  -20.968595  19.152891  88.271054  21.913102  38.807281  -32.828032  15.741063  -108.40851  74.449449  27.074308  38.688014  9.350747  -2.780888  -0.413406  7.009804  -2.092571  -0.267485  
0.0  101.685394  0.0  -2.455424  -12.257418  -103.39892  27.253474  -22.944321  7.43158  1.295865  3.31928  24.266333  6.596463  3.879985  4.271338  -9.648658  11.809837  0.67399  4.878791  0.881279  12.781859  13.933342  2.804089  -0.531647  -1.065317  -0.544256  1.903724  -2.953103  -1.402454  5.227179  -2.953103  -1.402454  5.227179  -4.453188  -4.126115  6.685694  -0.543862  60.49363  45.384419  -13.579809  -53.445661  65.841825  109.791943  16.574428  -37.994247  15.160614  -20.76044  21.633142  82.997605  20.256453  40.397335  -32.710034  9.412223  -107.938279  73.53688  29.483096  37.190141  10.725087  -2.91303  0.261471  8.043329  -2.180981  0.24732  
0.0  101.685394  0.0  -2.861552  -11.942996  -103.251431  28.265589  -23.868812  6.922015  0.188814  3.871863  24.050772  6.657925  3.861679  4.433116  -9.095494  11.277081  1.195409  4.109659  1.035038  12.23457  13.750678  2.65941  -0.542418  -1.539815  -0.788357  1.843435  -4.267454  -2.035119  5.088183  -4.267454  -2.035119  5.088183  -4.16258  -4.199893  6.211078  -4.906084  58.20267  37.283999  -6.862335  -48.624689  61.90278  107.406379  15.351283  -38.664972  14.820685  -18.667701  23.617828  78.920609  18.770134  40.981018  -33.403866  2.207132  -107.524132  74.044471  30.760925  34.233516  11.426759  -2.394816  0.588895  8.571137  -1.785843  0.486617  
0.0  101.685394  0.0  -3.087869  -11.522905  -103.096165  29.241984  -24.460858  6.248286  -1.089164  4.380456  24.056224  6.744843  3.791279  4.558715  -8.946468  11.038973  1.387122  3.690507  1.119038  11.95856  13.654345  2.465543  -0.542046  -1.789188  -0.933675  1.760058  -4.95759  -2.418768  4.879009  -4.95759  -2.418768  4.879009  -5.731496  -3.913736  6.062117  -5.550647  55.625862  33.604086  -3.170028  -40.856674  59.807676  109.678099  14.149549  -39.934646  13.228748  -16.748605  25.476007  75.492194  17.577214  40.72848  -32.752758  0.086684  -107.328669  73.687489  31.918224  34.651854  11.334954  -2.183461  0.846686  8.50323  -1.622558  0.675734  
0.0  101.685394  0.0  -3.218752  -11.000063  -102.95097  29.85015  -24.724729  5.556119  -2.150221  4.722913  24.267832  6.959976  3.704645  4.709455  -9.115086  10.934322  1.380478  3.604608  1.148843  11.911792  13.539462  2.308999  -0.527988  -2.057603  -1.049653  1.786766  -5.701249  -2.71295  4.971775  -5.701249  -2.71295  4.971775  -6.559572  -3.789107  6.044001  -2.928107  52.898633  33.63584  -2.728511  -37.342011  57.048691  114.650712  11.896557  -37.198024  12.328006  -14.891082  25.892524  72.561408  15.621238  40.281784  -33.267441  -0.24343  -107.65254  72.797204  32.290011  34.62956  11.389468  -1.828567  0.71372  8.543525  -1.358684  0.569574  
0.0  101.685394  0.0  -3.204929  -10.595838  -102.593556  30.202586  -24.514172  4.760749  -2.64223  4.778043  24.631031  7.156415  3.674077  4.916642  -9.444491  10.868491  1.033977  3.851022  1.196055  11.922439  13.340573  2.177809  -0.472638  -2.284648  -1.195558  1.854578  -6.336614  -3.087205  5.180541  -6.336614  -3.087205  5.180541  -5.987636  -4.817521  5.334243  -0.528472  50.532901  34.020012  -0.474628  -36.177469  52.942254  114.793351  10.956139  -36.564893  11.788956  -13.260849  25.78533  70.142129  13.569496  39.75205  -33.858108  1.819285  -108.546302  70.836514  32.587699  34.938254  11.610037  -1.06999  0.301751  8.707805  -0.797101  0.246745  
0.0  101.685394  0.0  -3.296406  -10.290596  -102.517989  30.235764  -24.409507  4.363514  -2.679916  4.562044  24.958317  7.114274  3.646809  4.996654  -9.971965  10.78403  0.959398  4.403108  1.210347  11.881817  13.140404  2.103219  -0.378121  -2.492939  -1.288266  1.928411  -6.917363  -3.315721  5.40168  -6.917362  -3.315721  5.40168  -4.069435  -6.428953  5.288574  0.925666  47.982868  34.224443  -1.237894  -34.462298  50.491178  112.029973  10.826461  -36.70982  11.382939  -12.247623  26.331642  68.212962  11.884994  38.723376  -34.684362  3.087465  -109.664916  69.05725  33.00138  33.798966  12.131258  -0.369787  -0.029759  9.098394  -0.278061  -0.014985  
0.0  101.685394  0.0  -3.350568  -10.118806  -102.297106  30.325679  -24.16423  4.031085  -2.447251  4.192878  25.137815  7.288398  3.673736  5.253133  -10.412881  10.729522  0.739909  4.896878  1.196977  11.81886  13.544639  1.853733  -0.196141  -2.642295  -1.387046  1.969198  -7.336548  -3.568133  5.531752  -7.336548  -3.568134  5.531753  -2.280743  -7.300895  5.667505  -0.102153  46.97514  32.376686  -4.35513  -32.577424  50.676386  112.149952  10.491153  -36.284663  10.518619  -11.073222  27.089418  67.423193  10.221539  37.247835  -36.236088  4.858504  -110.377274  66.38699  33.617515  31.563169  12.783807  0.402699  -0.334173  9.588039  0.295186  -0.259189  
0.0  101.685394  0.0  -3.188092  -10.363171  -101.921525  30.894801  -23.733842  3.739588  -2.176309  3.814048  25.094558  6.992257  3.64867  5.236639  -10.34216  10.831507  0.293014  5.111944  1.116287  11.778887  13.500042  1.90912  -0.150717  -2.683482  -1.522042  1.964373  -7.461344  -3.933308  5.536794  -7.461344  -3.933308  5.536794  -1.140319  -6.71091  5.648918  -2.76396  46.894126  29.321485  -5.470668  -31.902739  51.211429  113.235015  10.167655  -35.540947  9.317586  -9.493043  27.345064  67.344986  8.181112  35.818319  -37.95389  8.880894  -111.309341  63.298906  33.923713  30.736147  13.376012  1.284644  -0.533677  10.032718  0.952342  -0.428613  
0.0  101.685394  0.0  -2.790612  -11.263005  -101.485753  32.224693  -23.25103  3.559675  -1.043887  3.179202  25.471939  5.989199  3.614981  4.797801  -9.449477  10.971269  -0.212613  5.122421  1.091338  11.700291  13.523518  1.96188  -0.123722  -2.630103  -1.631465  1.919807  -7.322851  -4.241276  5.424859  -7.322852  -4.241276  5.424859  0.112111  -5.821099  5.79218  -6.565346  46.724472  25.985017  -4.656948  -32.112906  50.7846  112.77456  9.79442  -35.283476  8.403558  -8.018798  27.656628  67.13379  6.639093  34.479038  -39.486016  13.800346  -112.497091  61.360887  33.701138  31.497162  14.034171  1.991075  -0.495608  10.52619  1.482852  -0.417682  
0.0  101.685394  0.0  -2.478515  -12.459376  -101.262421  33.645853  -23.027398  3.625225  -1.088995  3.088441  24.969951  6.070736  3.570109  4.843906  -8.002027  11.015059  -0.439788  4.813818  1.089325  11.59384  13.558864  2.038045  -0.090391  -2.519095  -1.658194  1.885425  -7.019566  -4.327179  5.327052  -7.019566  -4.327179  5.327052  1.372715  -5.463209  6.005503  -9.525206  46.96268  23.662149  -4.245465  -33.201887  50.62486  112.168089  9.443325  -35.135886  7.982034  -7.139915  27.877481  66.316462  5.704853  33.223592  -40.423218  17.708789  -113.464437  60.290897  33.32679  32.493999  14.574601  2.166798  -0.253732  10.930547  1.620139  -0.242152  
0.0  101.685394  0.0  -2.346337  -13.082449  -101.243744  34.253046  -23.047746  3.972123  -1.254197  3.109794  24.330446  6.305393  3.574694  4.920893  -7.000913  11.077117  -0.475927  4.523141  1.07796  11.58433  13.500843  2.115847  -0.091106  -2.43824  -1.628089  1.8994  -6.796613  -4.250256  5.356817  -6.796613  -4.250256  5.356817  2.435495  -5.777842  6.040867  -12.138141  47.194242  21.811504  -4.625165  -33.996383  50.949505  112.089894  9.04724  -34.872671  7.586617  -6.756002  27.477544  65.368954  5.113545  32.321507  -40.608271  19.193175  -113.726972  59.6948  33.183835  32.736682  14.80385  1.979724  -0.013401  11.101825  1.485502  -0.058079  
0.0  101.685394  0.0  -2.324588  -13.027309  -101.346903  33.86318  -23.034585  4.483807  -1.285767  3.139155  23.808706  6.691897  3.587058  4.988657  -6.423097  11.168077  -0.336893  4.023046  1.048082  11.588512  13.466843  2.169956  -0.073209  -2.381939  -1.588845  1.924041  -6.640621  -4.145347  5.416449  -6.640622  -4.145347  5.416449  2.738996  -6.135611  5.941445  -13.680813  47.093217  20.762502  -5.396556  -34.562889  51.519202  112.171108  8.784846  -34.688372  6.943013  -6.948712  26.636486  64.690255  4.84276  32.133178  -40.073305  18.371293  -113.400643  59.49718  33.33979  32.334945  14.491142  1.684595  0.174892  10.867091  1.26844  0.091253  
0.0  101.685394  0.0  -2.407345  -12.812924  -101.201476  33.155487  -22.911345  4.707449  -1.25295  3.163552  23.292075  7.154128  3.641553  5.131261  -6.110137  11.263799  -0.541532  3.655736  0.958334  11.716284  13.367639  2.197466  -0.071645  -2.30063  -1.555606  1.871289  -6.412163  -4.066636  5.263866  -6.412163  -4.066636  5.263867  2.513268  -6.544928  5.987379  -14.246776  46.695619  20.555726  -6.16098  -35.039034  52.031412  112.065859  8.691642  -34.474836  6.036345  -7.303071  26.082322  64.732606  4.97507  32.266238  -38.99535  16.379805  -112.707985  59.615444  33.590254  31.628472  13.933627  1.353893  0.468769  10.448704  1.026743  0.320876  
